<svg xmlns="http://www.w3.org/2000/svg" viewBox="0 0 48 48" fill="none">
  <path d="M10 4h20l10 10v28a4 4 0 01-4 4H10a4 4 0 01-4-4V8a4 4 0 014-4z" fill="#fff"/>
  <path d="M30 4l10 10H34a4 4 0 01-4-4V4z" fill="#e8e8e8"/>
  <rect x="4" y="4" width="12" height="40" rx="4" fill="#BE4B19"/>
  <ellipse cx="10" cy="24" rx="4" ry="2" fill="none" stroke="#fff" stroke-width="1"/>
  <path d="M6 24v6c0 1.1 1.8 2 4 2s4-.9 4-2v-6" fill="none" stroke="#fff" stroke-width="1"/>
  <path d="M6 30v6c0 1.1 1.8 2 4 2s4-.9 4-2v-6" fill="none" stroke="#fff" stroke-width="1"/>
</svg>